<svg xmlns="http://www.w3.org/2000/svg" viewBox="0 0 32 32">
  <rect x="2" y="9" width="28" height="18" rx="3" fill="#1a1a1a"/>
  <rect x="5" y="12" width="3" height="3" rx="0.6" fill="#f5f5f5"/>
  <rect x="9.5" y="12" width="3" height="3" rx="0.6" fill="#f5f5f5"/>
  <rect x="14" y="12" width="3" height="3" rx="0.6" fill="#f5f5f5"/>
  <rect x="18.5" y="12" width="3" height="3" rx="0.6" fill="#f5f5f5"/>
  <rect x="23" y="12" width="4" height="3" rx="0.6" fill="#f5f5f5"/>
  <rect x="5" y="16" width="4" height="3" rx="0.6" fill="#f5f5f5"/>
  <rect x="10" y="16" width="3" height="3" rx="0.6" fill="#f5f5f5"/>
  <rect x="14" y="16" width="3" height="3" rx="0.6" fill="#f5f5f5"/>
  <rect x="18.5" y="16" width="3" height="3" rx="0.6" fill="#f5f5f5"/>
  <rect x="23" y="16" width="4" height="3" rx="0.6" fill="#f5f5f5"/>
  <rect x="9" y="20" width="14" height="3" rx="0.6" fill="#f5f5f5"/>
</svg>
